<svg width="100" height="100" viewBox="0 0 100 100" fill="none" xmlns="http://www.w3.org/2000/svg">
<g clip-path="url(#clip0_106_34)">
<path d="M0 100V0H100V100H0Z" fill="#7F54B3"/>
<path d="M99.8781 75.375C99.3469 77.9375 96.9562 79.6875 94.3469 79.6875H81.2531C79.3625 79.6875 77.8469 81.375 78.175 83.3438C78.425 84.875 79.8625 85.9375 81.425 85.9375H85.1594C88.55 85.9375 91.2375 89.0625 90.5031 92.5625C89.9719 95.125 87.5969 96.875 84.9875 96.875H16.4094C13.0187 96.875 10.3312 93.75 11.0656 90.25C11.5969 87.6875 13.9875 85.9375 16.5969 85.9375H18.7531C20.6437 85.9375 22.1594 84.25 21.8312 82.2812C21.5812 80.75 20.1437 79.6875 17.8156 79.6875H10.3469C7.73749 79.6875 5.34686 77.9375 4.81561 75.375C4.08124 71.875 6.76874 68.75 10.1594 68.75H29.6906V56.25H6.25311C4.53436 56.25 2.97186 55.5469 1.83124 54.4219C0.706238 53.2813 0.00311279 51.7188 0.00311279 50C0.00311279 46.5469 2.79999 43.75 6.25311 43.75H25.7844C27.7219 43.75 29.4875 42.9688 30.7531 41.6875C32.0344 40.4219 32.8156 38.6563 32.8156 36.7188C32.8156 32.8281 29.675 29.6875 25.7844 29.6875H7.03436C3.64374 29.6875 0.956238 26.5625 1.69061 23.0625C2.22186 20.5 4.61249 18.75 7.22186 18.75H21.8781C23.7687 18.75 25.2844 17.0625 24.9562 15.0937C24.7062 13.5625 23.2687 12.5 21.7062 12.5H11.7219C8.33124 12.5 5.64374 9.375 6.37811 5.875C6.90936 3.3125 9.28436 1.5625 11.8937 1.5625H91.4094C94.8 1.5625 97.4875 4.6875 96.7531 8.1875C96.2219 10.75 93.8312 12.5 91.2219 12.5H81.2531C79.3625 12.5 77.8469 14.1875 78.175 16.1563C78.425 17.6875 79.8625 18.75 81.425 18.75H92.7844C95.3937 18.75 97.7844 20.5 98.3156 23.0625C99.05 26.5625 96.3625 29.6875 92.9719 29.6875H75.0031C73.1125 29.6875 71.5969 31.375 71.925 33.3438C72.175 34.875 73.6125 35.9375 75.175 35.9375H94.5344C97.925 35.9375 100.612 39.0625 99.8781 42.5625C99.3469 45.125 96.9562 46.875 94.3469 46.875H64.0656V68.75H94.5344C97.925 68.75 100.612 71.875 99.8781 75.375Z" fill="url(#paint0_radial_106_34)"/>
<path d="M82.8125 26.5625H17.1875C12.0094 26.5625 7.8125 30.7594 7.8125 35.9375V64.0625C7.8125 69.2406 12.0094 73.4375 17.1875 73.4375H50L61.7188 81.0188C63.0594 81.8234 64.6188 80.3781 63.9203 78.9797L60.9375 73.4375H82.8125C87.9906 73.4375 92.1875 69.2406 92.1875 64.0625V35.9375C92.1875 30.7594 87.9906 26.5625 82.8125 26.5625Z" fill="url(#paint1_linear_106_34)"/>
<path d="M7.8125 35.9375V45.3125H29.6875C30.9844 45.3125 32.0313 44.2656 32.0313 42.9688C32.0313 41.6719 30.9844 40.625 29.6875 40.625H24.2141C22.4953 40.625 21.0891 39.2188 21.0891 37.5C21.0891 36.6406 21.4328 35.8594 22.0109 35.2969C22.5734 34.7188 23.3547 34.375 24.2141 34.375H35.9328C38.2297 34.375 40.0578 32.4062 39.8234 30.0625C39.6203 28.0312 37.7609 26.5625 35.7141 26.5625H17.1875C12.0094 26.5625 7.8125 30.7594 7.8125 35.9375Z" fill="url(#paint2_linear_106_34)"/>
<path d="M92.1875 64.0625V54.6875H75C73.7031 54.6875 72.6562 55.7344 72.6562 57.0312C72.6562 58.3281 73.7031 59.375 75 59.375H78.9109C80.6296 59.375 82.0359 60.7812 82.0359 62.5C82.0359 63.3594 81.6921 64.1406 81.114 64.7031C80.5515 65.2812 79.7703 65.625 78.9109 65.625H67.1921C64.8953 65.625 63.0672 67.5937 63.3015 69.9375C63.5047 71.9687 65.364 73.4375 67.4109 73.4375H82.8125C87.9906 73.4375 92.1875 69.2406 92.1875 64.0625Z" fill="url(#paint3_linear_106_34)"/>
<path d="M79.3625 42.9922C79.4359 42.9922 79.5984 43.0016 79.8578 43.0594C80.4688 43.1969 80.8563 43.4125 81.3219 44.2844C81.875 45.2828 82.1437 46.575 82.1437 48.2391C82.1437 50.7359 81.5781 52.9516 80.4062 55.0281C79.1453 57.2766 78.2234 57.2766 77.7812 57.2766C77.7078 57.2766 77.5453 57.2672 77.2859 57.2094C76.675 57.0719 76.2875 56.8563 75.8406 56.0203C75.2812 54.9969 75 53.6406 75 51.9984C75 49.5 75.5609 47.3016 76.7203 45.275C78.0188 42.9922 78.9609 42.9922 79.3625 42.9922ZM79.3625 37.6359C76.3797 37.6359 73.9594 39.2984 72.0641 42.6234C70.45 45.4484 69.6422 48.5734 69.6422 51.9984C69.6422 54.5594 70.1391 56.7516 71.1328 58.5813C72.25 60.6766 73.8969 61.9391 76.1031 62.4391C76.6922 62.5719 77.2516 62.6375 77.7797 62.6375C80.7922 62.6375 83.2141 60.975 85.0781 57.65C86.6922 54.7906 87.5 51.6656 87.5 48.2422C87.5 45.65 87.0031 43.4891 86.0094 41.6922C84.8922 39.5969 83.2453 38.3344 81.0391 37.8344C80.45 37.7016 79.8906 37.6359 79.3625 37.6359ZM57.9328 42.9922C58.0063 42.9922 58.1688 43.0016 58.4109 43.0563C59.0063 43.1922 59.4313 43.4266 59.8906 44.2859C60.4438 45.2828 60.7125 46.575 60.7125 48.2391C60.7125 50.7359 60.1469 52.9516 58.975 55.0281C57.7141 57.2766 56.7922 57.2766 56.35 57.2766C56.2766 57.2766 56.1141 57.2672 55.8547 57.2094C55.2438 57.0719 54.8563 56.8563 54.4094 56.0203C53.85 54.9953 53.5688 53.6406 53.5688 51.9969C53.5688 49.4984 54.1297 47.3 55.2891 45.2734C56.5906 42.9922 57.5313 42.9922 57.9328 42.9922ZM57.9328 37.6359C54.95 37.6359 52.5297 39.2984 50.6344 42.6234C49.0203 45.4484 48.2125 48.5734 48.2125 51.9984C48.2125 54.5594 48.7094 56.7516 49.7031 58.5813C50.8203 60.6766 52.4672 61.9391 54.6734 62.4391C55.2625 62.5719 55.8219 62.6375 56.35 62.6375C59.3625 62.6375 61.7844 60.975 63.6484 57.65C65.2625 54.7906 66.0703 51.6656 66.0703 48.2422C66.0703 45.65 65.5734 43.4891 64.5797 41.6922C63.4625 39.5969 61.7844 38.3344 59.6094 37.8344C59.0203 37.7016 58.4625 37.6359 57.9328 37.6359ZM40.1781 66.2078C39.4266 66.2078 38.6922 65.8906 38.1734 65.3063C34.2516 60.8797 31.8438 55.0656 30.4234 50.4078C28.3813 54.7297 25.6234 60.2563 22.8328 64.9063C22.2813 65.8266 21.2359 66.3203 20.1703 66.1828C19.1063 66.0344 18.2328 65.2672 17.9531 64.2313C14.0031 49.7188 12.5828 39.3203 12.5266 38.8844C12.3297 37.4203 13.3594 36.0719 14.8234 35.8734C16.3078 35.6813 17.6375 36.7031 17.8359 38.1703C17.8484 38.2578 18.8563 45.6297 21.4656 56.3828C25.4266 48.8688 28.7484 41.1422 28.7906 41.0438C29.2672 39.9359 30.4313 39.2781 31.6125 39.4453C32.8047 39.6063 33.7453 40.5438 33.9078 41.7359C33.9203 41.8281 34.875 48.5656 37.9172 55.0422C39.2016 42.2453 43.0469 35.6859 43.2422 35.3609C44.0047 34.0906 45.6531 33.6813 46.9172 34.4406C48.1875 35.2016 48.5969 36.8484 47.8375 38.1156C47.7922 38.1938 42.8609 46.7688 42.8609 63.5281C42.8609 64.6406 42.1719 65.6391 41.1328 66.0313C40.8172 66.15 40.4969 66.2078 40.1781 66.2078Z" fill="#7F54B3"/>
</g>
<defs>
<radialGradient id="paint0_radial_106_34" cx="0" cy="0" r="1" gradientUnits="userSpaceOnUse" gradientTransform="translate(50.0016 49.2188) scale(48.8422)">
<stop stop-color="#7F54B3"/>
<stop offset="0.219" stop-color="#7F54B3"/>
<stop offset="0.644" stop-color="#7F54B3"/>
<stop offset="1" stop-color="#7F54B3"/>
</radialGradient>
<linearGradient id="paint1_linear_106_34" x1="50" y1="81.25" x2="50" y2="-17.2797" gradientUnits="userSpaceOnUse">
<stop stop-color="white"/>
<stop offset="0.399" stop-color="white"/>
<stop offset="1" stop-color="white"/>
</linearGradient>
<linearGradient id="paint2_linear_106_34" x1="23.8281" y1="90.2375" x2="23.8281" y2="26.9781" gradientUnits="userSpaceOnUse">
<stop stop-color="white"/>
<stop offset="0.399" stop-color="white"/>
<stop offset="1" stop-color="white"/>
</linearGradient>
<linearGradient id="paint3_linear_106_34" x1="77.7343" y1="89.9359" x2="77.7343" y2="56.1547" gradientUnits="userSpaceOnUse">
<stop stop-color="white"/>
<stop offset="0.399" stop-color="white"/>
<stop offset="1" stop-color="white"/>
</linearGradient>
<clipPath id="clip0_106_34">
<rect width="100" height="100" fill="white"/>
</clipPath>
</defs>
</svg>
